<?xml version="1.0" standalone="no"?>
<!DOCTYPE svg>
<svg version="1.0" xmlns="http://www.w3.org/2000/svg"
 viewBox="0 0 512.000000 512.000000"
 preserveAspectRatio="xMidYMid meet">

<g transform="translate(0.000000,512.000000) scale(0.100000,-0.100000)"
fill="#000000" stroke="none">
<path d="M3955 5011 c-66 -16 -119 -52 -265 -180 -102 -89 -166 -131 -197
-131 -31 0 -64 17 -196 102 -246 158 -386 197 -483 133 -74 -48 -72 -217 7
-457 54 -165 153 -366 213 -431 67 -73 641 -105 822 -46 75 24 204 275 270
524 36 139 38 296 5 373 -24 52 -79 112 -106 112 -7 0 -19 2 -27 4 -7 2 -26 1
-43 -3z"/>
<path d="M2958 3822 c-53 -47 -157 -172 -240 -288 -200 -276 -386 -640 -445
-867 -23 -89 -25 -114 -20 -209 l6 -107 -162 6 c-185 7 -389 -7 -585 -41
l-130 -22 -6 29 c-3 16 -6 42 -6 58 l0 29 -655 0 -655 0 -4 -22 c-7 -31 -24
-247 -36 -438 -18 -296 -22 -684 -11 -969 11 -274 36 -642 46 -689 l5 -22 654
0 653 0 7 75 c3 41 9 109 12 149 l7 75 55 7 c158 20 348 -37 578 -173 154 -91
237 -132 354 -176 177 -66 352 -103 549 -116 474 -31 887 96 1253 385 98 77
658 633 765 759 51 60 99 129 120 173 70 143 66 301 -9 444 -78 147 -258 258
-420 258 l-47 0 15 42 c46 130 67 297 53 412 -15 120 -102 364 -196 550 -118
235 -310 524 -440 666 l-48 52 -150 -21 c-238 -35 -598 -26 -788 18 -36 9 -42
7 -79 -27z m622 -692 c0 -48 1 -50 36 -65 46 -19 44 -19 44 5 0 20 5 21 88 18
l87 -3 3 -137 3 -138 -92 0 c-91 0 -92 0 -131 36 -53 47 -95 64 -162 64 -85 0
-134 -51 -110 -115 10 -25 74 -53 188 -79 169 -40 239 -83 290 -175 22 -41 28
-65 28 -115 1 -127 -74 -214 -214 -250 -53 -13 -53 -14 -56 -55 l-3 -42 -87 3
-87 3 -3 50 c-2 32 -9 55 -19 63 -22 16 -33 15 -33 -3 0 -12 -17 -15 -95 -15
l-95 0 0 135 0 135 91 0 c88 0 93 -1 127 -31 52 -46 109 -69 172 -69 76 0 120
27 120 73 0 59 -55 92 -202 122 -149 31 -244 90 -287 179 -27 55 -28 155 -2
211 25 56 102 121 167 142 l54 17 0 43 0 43 90 0 90 0 0 -50z m-1195 -1020
c219 -29 445 -86 622 -156 207 -82 445 -228 568 -348 61 -59 76 -80 89 -125
20 -68 20 -94 1 -158 -20 -67 -80 -134 -147 -163 -108 -46 -306 -12 -660 114
-87 31 -161 56 -166 56 -13 0 -86 -200 -76 -209 13 -12 244 -94 368 -130 251
-75 439 -97 552 -67 142 38 256 135 329 281 56 114 170 242 402 456 254 235
260 239 351 239 160 0 285 -134 269 -288 -11 -106 -34 -135 -436 -543 -206
-208 -406 -403 -445 -433 -279 -212 -693 -326 -1074 -296 -271 22 -491 92
-728 233 -279 165 -463 227 -688 230 l-109 2 7 140 c11 218 8 627 -5 883 -10
184 -10 235 0 241 20 13 280 52 406 61 160 11 398 3 570 -20z"/>
</g>
</svg>
